<svg xmlns="http://www.w3.org/2000/svg" viewBox="0 0 200 195"><g id="Calque_2" data-name="Calque 2"><g id="Calque_1-2" data-name="Calque 1"><rect width="200" height="195" fill="#442a1b"/><path d="M4.34,5.13V189.87H195.66V5.13ZM192,186.16H8V8.84H192Z" fill="#f89520"/><text transform="translate(12.81 40.04)" font-size="33.62" fill="#f89520" font-family="ArialMT, Arial">ISM</text><rect x="23.9" y="167.06" width="154.18" height="3.14" fill="#f89520"/><rect x="28.72" y="160.36" width="145.11" height="2.98" fill="#f89520"/><rect x="32.34" y="154.17" width="138.44" height="2.98" fill="#f89520"/><path d="M33.53,69.74v80.69H168.77V69.74Zm133.32,79.07H35.45V71.36h131.4Z" fill="#f89520"/><path d="M38.38,73.4v35.32H62.47V73.4Zm22.47,33.79H40V74.6H60.85Z" fill="#f89520"/><path d="M63.83,73.4v35.32H87.91V73.4ZM86.3,107.19H65.45V74.6H86.3Z" fill="#f89520"/><path d="M89.28,73.4v35.32h24.08V73.4Zm22.46,33.79H90.89V74.6h20.85Z" fill="#f89520"/><path d="M114.72,73.4v35.32h24.09V73.4Zm22.47,33.79H116.34V74.6h20.85Z" fill="#f89520"/><path d="M140.17,73.4v35.32h24.09V73.4Zm22.47,33.79H141.79V74.6h20.85Z" fill="#f89520"/><path d="M38.38,111.4v35.32H62.47V111.4Zm22.47,33.79H40V112.6H60.85Z" fill="#f89520"/><path d="M63.83,111.4v35.32H87.91V111.4ZM86.3,145.19H65.45V112.6H86.3Z" fill="#f89520"/><path d="M89.28,111.4v35.32h24.08V111.4Zm22.46,33.79H90.89V112.6h20.85Z" fill="#f89520"/><path d="M114.72,111.4v35.32h24.09V111.4Zm22.47,33.79H116.34V112.6h20.85Z" fill="#f89520"/><path d="M140.17,111.4v35.32h24.09V111.4Zm22.47,33.79H141.79V112.6h20.85Z" fill="#f89520"/><rect x="34.13" y="58.72" width="134" height="2.43" fill="#f89520"/><rect x="34.3" y="62.3" width="134" height="2.43" fill="#f89520"/><rect x="34.47" y="65.87" width="134" height="2.43" fill="#f89520"/></g></g></svg>